TITLE ""
FILE "P1Q_t_1020-1029.mp3" MP3
  TRACK 01 AUDIO
    TITLE "P1Q_t_1020-1029_01"
    INDEX 01 00:00:00
  TRACK 02 AUDIO
    TITLE "P1Q_t_1020-1029_02"
    INDEX 01 00:00:10
  TRACK 03 AUDIO
    TITLE "P1Q_t_1020-1029_03"
    INDEX 01 00:01:27
  TRACK 04 AUDIO
    TITLE "P1Q_t_1020-1029_04"
    INDEX 01 00:01:49
  TRACK 05 AUDIO
    TITLE "P1Q_t_1020-1029_05"
    INDEX 01 00:03:18
  TRACK 06 AUDIO
    TITLE "P1Q_t_1020-1029_06"
    INDEX 01 00:03:38
  TRACK 07 AUDIO
    TITLE "P1Q_t_1020-1029_07"
    INDEX 01 00:09:46
  TRACK 08 AUDIO
    TITLE "P1Q_t_1020-1029_08"
    INDEX 01 00:10:19
  TRACK 09 AUDIO
    TITLE "P1Q_t_1020-1029_09"
    INDEX 01 00:11:24
  TRACK 10 AUDIO
    TITLE "P1Q_t_1020-1029_10"
    INDEX 01 00:11:45
  TRACK 11 AUDIO
    TITLE "P1Q_t_1020-1029_11"
    INDEX 01 00:13:50
  TRACK 12 AUDIO
    TITLE "P1Q_t_1020-1029_12"
    INDEX 01 00:13:70
  TRACK 13 AUDIO
    TITLE "P1Q_t_1020-1029_13"
    INDEX 01 00:18:36
  TRACK 14 AUDIO
    TITLE "P1Q_t_1020-1029_14"
    INDEX 01 00:19:06
  TRACK 15 AUDIO
    TITLE "P1Q_t_1020-1029_15"
    INDEX 01 00:20:05
  TRACK 16 AUDIO
    TITLE "P1Q_t_1020-1029_16"
    INDEX 01 00:20:27
  TRACK 17 AUDIO
    TITLE "P1Q_t_1020-1029_17"
    INDEX 01 00:21:48
  TRACK 18 AUDIO
    TITLE "P1Q_t_1020-1029_18"
    INDEX 01 00:21:69
  TRACK 19 AUDIO
    TITLE "P1Q_t_1020-1029_19"
    INDEX 01 00:26:00
  TRACK 20 AUDIO
    TITLE "P1Q_t_1020-1029_20"
    INDEX 01 00:26:43
  TRACK 21 AUDIO
    TITLE "P1Q_t_1020-1029_21"
    INDEX 01 00:27:50
  TRACK 22 AUDIO
    TITLE "P1Q_t_1020-1029_22"
    INDEX 01 00:27:72
  TRACK 23 AUDIO
    TITLE "P1Q_t_1020-1029_23"
    INDEX 01 00:30:39
  TRACK 24 AUDIO
    TITLE "P1Q_t_1020-1029_24"
    INDEX 01 00:30:56
  TRACK 25 AUDIO
    TITLE "P1Q_t_1020-1029_25"
    INDEX 01 00:34:52
  TRACK 26 AUDIO
    TITLE "P1Q_t_1020-1029_26"
    INDEX 01 00:35:24
  TRACK 27 AUDIO
    TITLE "P1Q_t_1020-1029_27"
    INDEX 01 00:36:41
  TRACK 28 AUDIO
    TITLE "P1Q_t_1020-1029_28"
    INDEX 01 00:36:61
  TRACK 29 AUDIO
    TITLE "P1Q_t_1020-1029_29"
    INDEX 01 00:39:63
  TRACK 30 AUDIO
    TITLE "P1Q_t_1020-1029_30"
    INDEX 01 00:40:10
  TRACK 31 AUDIO
    TITLE "P1Q_t_1020-1029_31"
    INDEX 01 00:45:13
  TRACK 32 AUDIO
    TITLE "P1Q_t_1020-1029_32"
    INDEX 01 00:45:56
  TRACK 33 AUDIO
    TITLE "P1Q_t_1020-1029_33"
    INDEX 01 00:46:65
  TRACK 34 AUDIO
    TITLE "P1Q_t_1020-1029_34"
    INDEX 01 00:47:14
  TRACK 35 AUDIO
    TITLE "P1Q_t_1020-1029_35"
    INDEX 01 00:48:31
  TRACK 36 AUDIO
    TITLE "P1Q_t_1020-1029_36"
    INDEX 01 00:48:50
  TRACK 37 AUDIO
    TITLE "P1Q_t_1020-1029_37"
    INDEX 01 00:52:66
  TRACK 38 AUDIO
    TITLE "P1Q_t_1020-1029_38"
    INDEX 01 00:53:36
  TRACK 39 AUDIO
    TITLE "P1Q_t_1020-1029_39"
    INDEX 01 00:54:49
  TRACK 40 AUDIO
    TITLE "P1Q_t_1020-1029_40"
    INDEX 01 00:54:71
  TRACK 41 AUDIO
    TITLE "P1Q_t_1020-1029_41"
    INDEX 01 00:56:25
  TRACK 42 AUDIO
    TITLE "P1Q_t_1020-1029_42"
    INDEX 01 00:56:44
  TRACK 43 AUDIO
    TITLE "P1Q_t_1020-1029_43"
    INDEX 01 00:59:74
  TRACK 44 AUDIO
    TITLE "P1Q_t_1020-1029_44"
    INDEX 01 01:00:44
  TRACK 45 AUDIO
    TITLE "P1Q_t_1020-1029_45"
    INDEX 01 01:01:63
  TRACK 46 AUDIO
    TITLE "P1Q_t_1020-1029_46"
    INDEX 01 01:02:09
  TRACK 47 AUDIO
    TITLE "P1Q_t_1020-1029_47"
    INDEX 01 01:03:60
  TRACK 48 AUDIO
    TITLE "P1Q_t_1020-1029_48"
    INDEX 01 01:04:04
  TRACK 49 AUDIO
    TITLE "P1Q_t_1020-1029_49"
    INDEX 01 01:07:65
  TRACK 50 AUDIO
    TITLE "P1Q_t_1020-1029_50"
    INDEX 01 01:08:37
  TRACK 51 AUDIO
    TITLE "P1Q_t_1020-1029_51"
    INDEX 01 01:09:66
  TRACK 52 AUDIO
    TITLE "P1Q_t_1020-1029_52"
    INDEX 01 01:10:11
  TRACK 53 AUDIO
    TITLE "P1Q_t_1020-1029_53"
    INDEX 01 01:13:07
  TRACK 54 AUDIO
    TITLE "P1Q_t_1020-1029_54"
    INDEX 01 01:13:27
  TRACK 55 AUDIO
    TITLE "P1Q_t_1020-1029_55"
    INDEX 01 01:16:70
  TRACK 56 AUDIO
    TITLE "P1Q_t_1020-1029_56"
    INDEX 01 01:17:42
  TRACK 57 AUDIO
    TITLE "P1Q_t_1020-1029_57"
    INDEX 01 01:18:67
  TRACK 58 AUDIO
    TITLE "P1Q_t_1020-1029_58"
    INDEX 01 01:19:12
  TRACK 59 AUDIO
    TITLE "P1Q_t_1020-1029_59"
    INDEX 01 01:24:46
  TRACK 60 AUDIO
    TITLE "P1Q_t_1020-1029_60"
    INDEX 01 01:24:66
  TRACK 61 AUDIO
    TITLE "P1Q_t_1020-1029_61"
    INDEX 01 01:28:62
